# xmcd
#
# Track frame offsets:
#	150
#	20431
#	41313
#	57370
#	82114
#	99014
#	129237
#	147909
#	165574
#	180639
#	210667
#	242242
#	260701
#	277502
#	299473
#	321737
#
# Disc length: 4616 seconds
#
# Revision: 1
# Processed by: cddbd v1.5.2PL0 Copyright (c) Steve Scherf et al.
# Submitted via: audiograbber 1.83.01
#
DISCID=e3120610
DTITLE=Gladys Knight and the Pips - Gold CD3
DYEAR=2020
DGENRE=Soul
TTITLE0=Landlord
TTITLE1=Taste Of Bitter Love
TTITLE2=Bourgie' Bourgie'
TTITLE3=Still Such A Thing
TTITLE4=Forever Yesterday (For The Children)
TTITLE5=I Will Survive
TTITLE6=I Will Fight
TTITLE7=Baby Baby Don't Waste My Time
TTITLE8=A Friend Of Mine
TTITLE9=Save The Overtime For Me (12" Mix)
TTITLE10=When You're Far Away (12" Version)
TTITLE11=You're Number One (In My Book)
TTITLE12=Hero (Wind Beneath My Wings)
TTITLE13=Ain't No Greater Love
TTITLE14=My Time (Body Slam Mix)
TTITLE15=Till I See You Again
EXTD=
EXTT0=
EXTT1=
EXTT2=
EXTT3=
EXTT4=
EXTT5=
EXTT6=
EXTT7=
EXTT8=
EXTT9=
EXTT10=
EXTT11=
EXTT12=
EXTT13=
EXTT14=
EXTT15=
PLAYORDER=
